HIERARCHY
ROOT hip
{
	OFFSET 0.000000 0.000000 0.000000 
	CHANNELS 6 Xposition Yposition Zposition Xrotation Zrotation Yrotation
	JOINT abdomen
	{
		OFFSET 0.000000 3.402643 0.000000 
		CHANNELS 3 Xrotation Zrotation Yrotation
		JOINT chest
		{
			OFFSET 0.000000 8.438565 -0.680529 
			CHANNELS 3 Xrotation Zrotation Yrotation
			JOINT neck
			{
				OFFSET 0.000000 10.207942 -0.272212 
				CHANNELS 3 Xrotation Zrotation Yrotation
				JOINT head
				{
					OFFSET 0.000000 3.130431 0.000000 
					CHANNELS 3 Xrotation Zrotation Yrotation
					End Site
					{
						OFFSET 0.000000 3.130435 0.000000 
					}
				}
			}
			JOINT lCollar
			{
				OFFSET 3.470700 6.669187 -0.816635 
				CHANNELS 3 Yrotation Zrotation Xrotation
				JOINT lShldr
				{
					OFFSET 3.198488 0.000000 0.000000 
					CHANNELS 3 Zrotation Yrotation Xrotation
					JOINT lForeArm
					{
						OFFSET 10.139888 0.000000 0.000000 
						CHANNELS 3 Yrotation Zrotation Xrotation
						JOINT lHand
						{
							OFFSET 8.370511 0.000000 0.000000 
							CHANNELS 3 Zrotation Yrotation Xrotation
							End Site
							{
								OFFSET 4.083176 0.000000 0.000000 
							}
						}
					}
				}
			}
			JOINT rCollar
			{
				OFFSET -3.470700 6.669187 -0.816635 
				CHANNELS 3 Yrotation Zrotation Xrotation
				JOINT rShldr
				{
					OFFSET -3.198488 0.000000 0.000000 
					CHANNELS 3 Zrotation Yrotation Xrotation
					JOINT rForeArm
					{
						OFFSET -10.139888 0.000000 0.000000 
						CHANNELS 3 Yrotation Zrotation Xrotation
						JOINT rHand
						{
							OFFSET -8.370511 0.000000 0.000000 
							CHANNELS 3 Zrotation Yrotation Xrotation
							End Site
							{
								OFFSET -4.083176 0.000000 0.000000 
							}
						}
					}
				}
			}
		}
	}
	JOINT lThigh
	{
		OFFSET 5.308129 -1.633274 1.361059 
		CHANNELS 3 Xrotation Zrotation Yrotation
		JOINT lShin
		{
			OFFSET -2.041588 -20.007561 0.000000 
			CHANNELS 3 Xrotation Zrotation Yrotation
			JOINT lFoot
			{
				OFFSET 0.000000 -19.190928 -1.224953 
				CHANNELS 3 Xrotation Yrotation Zrotation
				End Site
				{
					OFFSET 0.000000 -2.449906 4.627600 
				}
			}
		}
	}
	JOINT rThigh
	{
		OFFSET -5.308129 -1.633274 1.361059 
		CHANNELS 3 Xrotation Zrotation Yrotation
		JOINT rShin
		{
			OFFSET 2.041588 -20.007561 0.000000 
			CHANNELS 3 Xrotation Zrotation Yrotation
			JOINT rFoot
			{
				OFFSET 0.000000 -19.190928 -1.224953 
				CHANNELS 3 Xrotation Yrotation Zrotation
				End Site
				{
					OFFSET 0.000000 -2.449906 4.627600 
				}
			}
		}
	}
}
MOTION
Frames: 18
Frame Time: 0.016667
-2.028546 50.867332 -0.665195 -7.460406 -17.948318 -64.690613 34.436028 7.383784 6.408767 2.899374 2.176002 3.302470 6.232046 -0.684345 -0.084224 20.456198 -15.973042 35.207779 -9.810502 -9.880139 -0.522117 -33.482235 2.461612 -6.628725 -102.668243 5.000000 7.337675 -16.542250 -19.890076 4.388703 9.025768 -3.061316 0.151310 85.958725 65.024521 45.000000 113.284088 -5.000000 5.107735 22.956278 -12.468405 2.798322 10.592376 24.380764 12.456016 14.286872 -3.914349 -1.099720 3.630820 4.454814 -15.135887 27.169907 -12.449162 -14.064825 18.804943 1.888216 0.666555 -17.861290 -20.589270 14.424131 
-2.030552 50.865597 -0.660064 -7.450293 -17.931160 -64.727753 34.384087 7.381332 6.395974 2.853220 2.205215 3.332114 6.300583 -0.724429 -0.088041 20.506626 -16.008688 35.194729 -9.839616 -9.860629 -0.521111 -33.536095 2.610863 -6.663242 -102.605827 5.000000 7.310067 -16.713551 -19.869059 4.407859 9.133369 -3.129602 0.154849 85.834145 65.001663 45.000000 113.248383 -5.000000 5.131180 23.093857 -12.427459 2.758418 10.611984 24.361300 12.485685 14.258065 -3.904887 -1.126462 3.680889 4.474525 -15.107944 27.182037 -12.469530 -14.061586 18.767605 1.872138 0.652321 -17.742970 -20.534021 14.507240 
-2.035686 50.866993 -0.655092 -7.454283 -17.916325 -64.740318 34.336449 7.387192 6.409992 2.852800 2.185684 3.341869 6.300751 -0.754856 -0.093318 20.537886 -16.032627 35.197422 -9.818234 -9.842794 -0.510624 -33.558617 2.643670 -6.664032 -102.578316 5.000000 7.302751 -16.721148 -19.894176 4.323224 9.163304 -3.167063 0.166496 85.797394 65.017906 45.000000 113.209549 -5.000000 5.126863 23.153816 -12.357838 2.799278 10.631783 24.332724 12.483723 14.226216 -3.913949 -1.095394 3.665438 4.547195 -15.073713 27.196724 -12.461170 -14.048779 18.701015 1.861552 0.617800 -17.702040 -20.519625 14.509624 
-2.042907 50.870480 -0.650227 -7.444038 -17.912159 -64.737312 34.292038 7.406099 6.438592 2.880137 2.146669 3.351269 6.251956 -0.774168 -0.090399 20.551102 -16.050955 35.233150 -9.749786 -9.833041 -0.510121 -33.564548 2.610185 -6.642920 -102.562645 5.000000 7.288637 -16.632814 -19.937983 4.199262 9.143801 -3.176815 0.167001 85.804688 65.068634 45.000000 113.180466 -5.000000 5.107703 23.147497 -12.274058 2.899829 10.638832 24.319061 12.493393 14.210332 -3.895267 -1.112150 3.625235 4.551016 -15.083204 27.251226 -12.440895 -14.085805 18.596247 1.832445 0.598261 -17.740318 -20.492773 14.474059 
-2.049746 50.874313 -0.646040 -7.443067 -17.903822 -64.731308 34.247593 7.425417 6.466682 2.898479 2.117396 3.361035 6.222688 -0.793479 -0.087479 20.572916 -16.063156 35.256973 -9.700870 -9.823288 -0.509618 -33.570633 2.582111 -6.613223 -102.571266 5.000000 7.297575 -16.542915 -20.004734 4.097606 9.113968 -3.178362 0.157374 85.805336 65.108604 45.000000 113.158783 -5.000000 5.087963 23.050465 -12.232017 3.052994 10.659816 24.331684 12.508371 14.199594 -3.897545 -1.111677 3.597957 4.530969 -15.069397 27.287699 -12.410793 -14.088305 18.511204 1.813241 0.551742 -17.806026 -20.516979 14.415420 
-2.055052 50.879539 -0.644566 -7.472901 -17.905403 -64.671341 34.209259 7.425963 6.464568 2.897328 2.097896 3.370806 6.212877 -0.764512 -0.091858 20.566710 -16.082859 35.238552 -9.700782 -9.813537 -0.509114 -33.588974 2.566367 -6.616839 -102.599747 5.000000 7.325998 -16.444918 -20.120974 4.143216 9.065035 -3.139344 0.155352 85.757431 65.103119 45.000000 113.177811 -5.000000 5.039879 22.603424 -12.338291 3.395715 10.660810 24.312737 12.454836 14.159173 -3.894826 -1.127354 3.630217 4.507783 -15.117995 27.331560 -12.411675 -14.110098 18.460905 1.822835 0.560141 -18.028786 -20.625948 14.329491 
-2.060357 50.884754 -0.643092 -7.490302 -17.901571 -64.619148 34.181416 7.435066 6.465863 2.895791 2.068637 3.380576 6.202940 -0.734084 -0.086582 20.566372 -16.094589 35.222839 -9.690928 -9.803784 -0.508611 -33.617023 2.549496 -6.620879 -102.639832 5.000000 7.360094 -16.357447 -20.236734 4.195136 9.016129 -3.110078 0.153835 85.712669 65.088097 45.000000 113.197472 -5.000000 4.999843 22.159559 -12.432926 3.720317 10.648727 24.309883 12.393244 14.143279 -3.915036 -1.138486 3.593893 4.523439 -15.113690 27.406668 -12.371682 -14.171653 18.391853 1.819562 0.575369 -18.277336 -20.732094 14.244028 
-2.066981 50.884399 -0.643081 -7.503219 -17.908253 -64.551315 34.144588 7.452318 6.472322 2.893956 2.049164 3.370827 6.261384 -0.713312 -0.079846 20.534090 -16.131151 35.291626 -9.741240 -9.782629 -0.517089 -33.641560 2.603895 -6.624376 -102.712074 5.000000 7.402824 -16.342091 -20.194500 4.090499 9.036157 -3.098794 0.162961 85.644112 65.020927 45.000000 113.208893 -5.000000 4.899997 21.130760 -12.585532 4.476227 10.650015 24.311922 12.343326 14.116286 -3.908338 -1.086960 3.613603 4.515022 -15.054261 27.464661 -12.342771 -14.195348 18.332697 1.822761 0.572584 -18.361483 -20.777630 14.237034 
-2.073937 50.882656 -0.643433 -7.506863 -17.919018 -64.486450 34.088272 7.495842 6.468765 2.892142 2.029689 3.351313 6.339497 -0.703657 -0.081305 20.508690 -16.165730 35.369629 -9.789887 -9.763117 -0.516082 -33.667141 2.671794 -6.625640 -102.808990 5.000000 7.461629 -16.349167 -20.135204 3.943869 9.065427 -3.089042 0.162456 85.584885 64.914963 45.000000 113.229500 -5.000000 4.789918 19.954832 -12.722598 5.343337 10.652470 24.334616 12.296760 14.073665 -3.914840 -1.094517 3.667347 4.490359 -15.051350 27.521872 -12.292950 -14.242395 18.264221 1.809781 0.596190 -18.423016 -20.812517 14.196367 
-2.078770 50.881611 -0.644376 -7.504684 -17.914902 -64.434166 34.049854 7.505229 6.472395 2.920711 2.019944 3.351317 6.349261 -0.703657 -0.081305 20.459774 -16.192242 35.447632 -9.807588 -9.745272 -0.505591 -33.688564 2.691117 -6.629241 -102.903099 5.000000 7.516826 -16.418789 -20.064573 3.843598 9.055089 -3.071074 0.151816 85.591797 64.846031 45.000000 113.247345 -5.000000 4.729901 19.278124 -12.796937 6.180350 10.641037 24.351591 12.258481 14.066500 -3.944604 -1.067718 3.650671 4.439926 -15.016584 27.561682 -12.254959 -14.251924 18.216148 1.803302 0.582864 -18.384714 -20.855543 14.211074 
-2.080421 50.881611 -0.646206 -7.474991 -17.894878 -64.408333 33.978596 7.498740 6.471084 2.980724 2.029661 3.361066 6.261357 -0.694001 -0.082765 20.374832 -16.208801 35.534832 -9.788054 -9.745272 -0.505591 -33.711411 2.612156 -6.638743 -102.995766 5.000000 7.564820 -16.586096 -19.995096 3.787985 8.967122 -3.041801 0.150298 85.707825 64.818863 45.000000 113.256454 -5.000000 4.749293 19.353609 -12.818706 6.963974 10.601012 24.379824 12.207461 14.062442 -3.953597 -1.116664 3.672136 4.501484 -15.016928 27.551819 -12.205803 -14.255493 18.190535 1.774245 0.548010 -18.247326 -20.862303 14.261809 
-2.082073 50.881611 -0.648035 -7.466949 -17.875864 -64.371681 33.917557 7.502522 6.473788 3.040748 2.039378 3.380579 6.173468 -0.694001 -0.082765 20.295742 -16.217327 35.619297 -9.758671 -9.735518 -0.505088 -33.724628 2.539751 -6.639178 -103.101524 5.000000 7.623175 -16.743217 -19.926790 3.728608 8.879639 -3.001269 0.157910 85.822952 64.791489 45.000000 113.265358 -5.000000 4.773079 19.434128 -12.841743 7.734770 10.552480 24.389528 12.161439 14.032101 -3.953248 -1.114476 3.723673 4.500663 -15.026776 27.536781 -12.167976 -14.271912 18.171005 1.773349 0.546818 -18.067396 -20.858557 14.323642 
-2.087028 50.879871 -0.653517 -7.521493 -17.887289 -64.292877 33.927616 7.481747 6.470581 3.010794 2.049178 3.331771 6.163715 -0.703657 -0.081305 20.275871 -16.187769 35.644169 -9.748817 -9.725767 -0.504584 -33.743107 2.529421 -6.634627 -103.093048 5.000000 7.601864 -16.642527 -20.000027 3.848682 8.849689 -2.944256 0.145243 85.916924 64.711929 45.000000 113.341782 -5.000000 4.686187 19.166225 -13.201427 7.861414 10.554203 24.382887 12.069919 14.049163 -3.964977 -1.117122 3.649193 4.558500 -15.049088 27.608870 -12.156735 -14.332896 18.114883 1.744288 0.539592 -18.026983 -20.849087 14.361055 
-2.091986 50.878128 -0.659000 -7.573373 -17.893324 -64.224846 33.936520 7.439415 6.468909 2.990978 2.068735 3.273199 6.153948 -0.703657 -0.081305 20.274492 -16.152205 35.657127 -9.729111 -9.706263 -0.503578 -33.761589 2.519095 -6.630069 -103.085945 5.000000 7.590178 -16.538813 -20.076637 3.956240 8.820271 -2.895488 0.142717 86.009071 64.642159 45.000000 113.418999 -5.000000 4.602431 18.895920 -13.560093 7.990766 10.526772 24.355021 11.980111 14.069450 -3.962691 -1.137797 3.666355 4.647437 -15.101829 27.690653 -12.147568 -14.393524 18.097069 1.724837 0.536131 -17.978294 -20.834944 14.398579 
-2.095948 50.876385 -0.663383 -7.588823 -17.920513 -64.168793 33.937382 7.438743 6.467089 3.001125 2.078493 3.263435 6.134251 -0.663573 -0.077488 20.247284 -16.136332 35.654419 -9.729198 -9.716015 -0.504081 -33.730434 2.500905 -6.625638 -103.102844 5.000000 7.598371 -16.509666 -20.099081 3.980710 8.781044 -2.827213 0.139179 86.084663 64.590042 45.000000 113.464149 -5.000000 4.578588 18.787014 -13.735285 8.016317 10.516639 24.383471 11.913517 14.100751 -3.963020 -1.110772 3.661207 4.567773 -15.107719 27.748478 -12.118589 -14.437145 18.057158 1.724703 0.553456 -17.962082 -20.839634 14.396352 
-2.099249 50.874645 -0.667038 -7.571252 -17.949986 -64.140442 33.938980 7.470232 6.462203 3.031515 2.088224 3.292719 6.104655 -0.593062 -0.068393 20.190390 -16.132214 35.633301 -9.739053 -9.725768 -0.504584 -33.670937 2.488748 -6.633918 -103.130615 5.000000 7.632130 -16.507801 -20.086313 3.919802 8.741776 -2.739433 0.134631 86.144104 64.565727 45.000000 113.504219 -5.000000 4.606701 18.787270 -13.771038 7.971996 10.504696 24.420111 11.908743 14.156293 -3.945331 -1.113193 3.619802 4.532935 -15.057979 27.781233 -12.070064 -14.422163 18.066416 1.734462 0.545603 -17.960623 -20.860973 14.395015 
-2.102185 50.872898 -0.671024 -7.554759 -17.987999 -64.118126 33.951672 7.485072 6.469560 3.061555 2.097967 3.302479 6.075084 -0.512894 -0.060758 20.148098 -16.114115 35.597561 -9.760322 -9.733863 -0.514574 -33.620201 2.467398 -6.637250 -103.157341 5.000000 7.654315 -16.519100 -20.060772 3.868302 8.692770 -2.661404 0.130587 86.215530 64.552567 45.000000 113.533394 -5.000000 4.620938 18.721975 -13.814018 7.956154 10.485341 24.449404 11.890684 14.205710 -3.913679 -1.103675 3.648310 4.467622 -15.079783 27.814932 -12.020482 -14.428326 18.054905 1.745206 0.565714 -17.983225 -20.916508 14.360261 
-2.103659 50.871162 -0.676330 -7.586013 -18.033583 -64.112755 34.003120 7.486440 6.491492 3.080632 2.068665 3.341526 6.064979 -0.392643 -0.049303 20.119106 -16.047945 35.511497 -9.779585 -9.704603 -0.513064 -33.579018 2.439521 -6.649172 -103.172539 5.000000 7.631925 -16.540697 -20.026932 3.846508 8.594879 -2.554110 0.125026 86.345703 64.585419 45.000000 113.519455 -5.000000 4.587759 18.365211 -13.835857 8.005992 10.514535 24.439047 11.883479 14.240010 -3.895474 -1.133784 3.605477 4.524205 -15.092442 27.842958 -12.029672 -14.402642 18.081608 1.774169 0.571315 -18.029047 -20.881693 14.338496 
